# xmcd CD database file
#
# Track frame offsets:
#	150
#	22176
#	38757
#	55617
#	74877
#	91786
#	116024
#	133567
#	151925
#	169329
#
# Disc length: 2426 seconds
#
# Revision: 4
# Processed by: cddbd v1.5.2PL0 Copyright (c) Steve Scherf et al.
# Submitted via: CDex 1.51
#
DISCID=8509780a
DTITLE=Era - Classics
DYEAR=2009
DGENRE=Country
TTITLE0=Caccini - Redemption and Ave Maria
TTITLE1=Vivaldi - Sunset Drive and Spring - Four Seasons
TTITLE2=Verdi - Arising Force and Nabucco
TTITLE3=Verdi - The Chosen Path and La Forza Del Destino
TTITLE4=Bach - Ritus Pacis and Concerto Nr. 3
TTITLE5=Mahler - Adagietto and 5th Symphony
TTITLE6=Handel - Dark Wonders and Sarabande and Ombra Mai Fu
TTITLE7=Vivaldi - Winds Of Hope and Winter - Four Seasons
TTITLE8=Levi - Sombre Day
TTITLE9=Barber - Adagio For Strings
EXTD=YEAR: 2009
EXTT0=
EXTT1=
EXTT2=
EXTT3=
EXTT4=
EXTT5=
EXTT6=
EXTT7=
EXTT8=
EXTT9=
PLAYORDER=
